<?xml version="1.0" encoding="UTF-8" standalone="no"?>
<svg
   xmlns:dc="http://purl.org/dc/elements/1.1/"
   xmlns:cc="http://creativecommons.org/ns#"
   xmlns:rdf="http://www.w3.org/1999/02/22-rdf-syntax-ns#"
   xmlns:svg="http://www.w3.org/2000/svg"
   xmlns="http://www.w3.org/2000/svg"
   xmlns:sodipodi="http://sodipodi.sourceforge.net/DTD/sodipodi-0.dtd"
   xmlns:inkscape="http://www.inkscape.org/namespaces/inkscape"
   viewBox="0 0 2560 1440"
   id="svg2"
   version="1.1"
   inkscape:version="0.91 r13725"
   sodipodi:docname="inkhand0.svg">
  <metadata
     id="metadata10">
    <rdf:RDF>
      <cc:Work
         rdf:about="">
        <dc:format>image/svg+xml</dc:format>
        <dc:type
           rdf:resource="http://purl.org/dc/dcmitype/StillImage" />
        <dc:title></dc:title>
      </cc:Work>
    </rdf:RDF>
  </metadata>
  <defs
     id="defs8" />
  <sodipodi:namedview
     pagecolor="#ffffff"
     bordercolor="#666666"
     borderopacity="1"
     objecttolerance="10"
     gridtolerance="10"
     guidetolerance="10"
     inkscape:pageopacity="0"
     inkscape:pageshadow="2"
     inkscape:window-width="768"
     inkscape:window-height="480"
     id="namedview6"
     showgrid="false"
     inkscape:zoom="0.465625"
     inkscape:cx="515.83354"
     inkscape:cy="800.04156"
     inkscape:window-x="911"
     inkscape:window-y="138"
     inkscape:window-maximized="0"
     inkscape:current-layer="svg2" />
  <path
     d="M 403.712 885.306 C 328.343 793.471 275.117 691.758 294.363 595.53 C 298.141 576.64 319.7 554.524 338.103 554.524 C 339.856 554.524 350.495 553.248 351.771 554.524 C 357.474 560.226 369.82 564.651 373.641 572.293 C 375.24 575.491 377.47 578.584 379.109 581.861 C 379.324 582.292 381.194 588.626 381.842 587.329 C 384.671 581.672 377.742 575.592 377.742 569.559 C 377.742 554.669 390.975 533.066 406.446 528.553 C 416.42 525.644 426.281 522.132 436.517 520.352 C 439.134 519.897 451.91 521.898 454.286 523.086 C 469.347 530.616 467.889 536.688 480.257 549.056 C 482.106 550.906 489.825 556.009 489.825 557.258 C 493.549 557.258 514.172 526.076 517.162 523.086 C 527.692 512.556 544.07 510.47 559.43 513.861 C 580.236 518.456 599.174 533.101 599.174 550.423 C 600.878 550.423 616.921 524.486 619.677 520.352 C 630.277 504.453 647.796 501.043 663.938 503.72 C 677.127 505.908 689.398 512.161 696.222 518.985 C 698.728 521.491 696.45 528.781 698.956 531.287 C 706.635 538.966 702.236 552.063 705.79 562.725 C 709.931 575.148 705.9 585.631 703.056 594.163 C 697.888 609.668 697.492 627.257 692.121 643.37 C 688.013 655.695 688.007 665.267 682.553 676.175 C 681.89 677.5 679.848 684.376 678.453 684.376 C 690.22 673.975 718.434 669.683 731.76 683.009 C 738.632 689.881 740.962 698.311 744.062 707.613 C 746.01 713.457 749.904 725.999 746.796 732.217 C 738.263 749.283 734.104 771.268 724.926 789.625 C 718.125 803.226 706.457 811.972 697.589 823.797 C 653.24 882.927 587.234 903.075 514.428 903.075 C 492.065 903.075 472.89 907.043 451.553 901.708 C 442.603 899.471 432.001 901.431 424.215 896.241 C 419.397 893.029 402.345 889.899 402.345 885.306 L 403.712 885.306 Z"
     style="stroke: black; fill: none;"
     id="path4" />
</svg>
