<?xml version="1.0" encoding="UTF-8" standalone="no"?>
<svg
   xmlns:dc="http://purl.org/dc/elements/1.1/"
   xmlns:cc="http://creativecommons.org/ns#"
   xmlns:rdf="http://www.w3.org/1999/02/22-rdf-syntax-ns#"
   xmlns:svg="http://www.w3.org/2000/svg"
   xmlns="http://www.w3.org/2000/svg"
   version="1.1"
   id="svg2"
   viewBox="0 0 2560 1440">
  <metadata
     id="metadata10">
    <rdf:RDF>
      <cc:Work
         rdf:about="">
        <dc:format>image/svg+xml</dc:format>
        <dc:type
           rdf:resource="http://purl.org/dc/dcmitype/StillImage" />
        <dc:title></dc:title>
      </cc:Work>
    </rdf:RDF>
  </metadata>
  <path
     id="path4"
     style="fill:none;stroke:#000000"
     d="M 403.712,885.306 C 328.343,793.471 275.117,691.758 294.363,595.53 c 3.778,-18.89 25.337,-41.006 43.74,-41.006 1.753,0 12.392,-1.276 13.668,0 5.703,5.702 18.049,10.127 21.87,17.769 1.599,3.198 3.829,6.291 5.468,9.568 0.215,0.431 2.085,6.765 2.733,5.468 2.829,-5.657 -4.1,-11.737 -4.1,-17.77 0,-14.89 13.233,-36.493 28.704,-41.006 9.974,-2.909 19.835,-6.421 30.071,-8.201 2.617,-0.455 15.393,1.546 17.769,2.734 15.061,7.53 13.603,13.602 25.971,25.97 1.849,1.85 9.568,6.953 9.568,8.202 3.724,0 24.347,-31.182 27.337,-34.172 10.53,-10.53 26.908,-12.616 42.268,-9.225 20.806,4.595 39.744,19.24 39.744,36.562 1.704,0 9.60119,-10.94623 10.83857,-26.84952 1.49947,-41.18324 -1.94811,-307.09424 31.37509,-311.93402 35.60906,-17.54287 39.79938,82.65023 46.62339,159.27289 0.31438,3.53004 10.71688,156.35003 12.08391,162.65258 2.30198,10.61296 -0.007,19.03498 0.86283,32.38155 0.85124,13.06729 -0.42692,16.46304 -2.19709,29.29035 -2.48344,17.11573 -1.2687,32.02017 -6.6397,48.13317 -4.108,12.325 -4.114,21.897 -9.568,32.805 -0.663,1.325 -2.705,8.201 -4.1,8.201 11.767,-10.401 39.981,-14.693 53.307,-1.367 6.872,6.872 9.202,15.302 12.302,24.604 1.948,5.844 5.842,18.386 2.734,24.604 -8.533,17.066 -12.692,39.051 -21.87,57.408 -6.801,13.601 -18.469,22.347 -27.337,34.172 -44.349,59.13 -110.355,79.278 -183.161,79.278 -22.363,0 -41.538,3.968 -62.875,-1.367 -8.95,-2.237 -19.552,-0.277 -27.338,-5.467 -4.818,-3.212 -21.87,-6.342 -21.87,-10.935 L 403.712 885.306 z" />
  <defs
     id="defs8" />
</svg>
